<mxfile host="Electron" agent="Mozilla/5.0 (X11; Linux x86_64) AppleWebKit/537.36 (KHTML, like Gecko) draw.io/26.0.4 Chrome/128.0.6613.186 Electron/32.2.5 Safari/537.36" version="26.0.4">
  <diagram name="Page-1" id="YBi6Bq3M58FDzzkxP9I_">
    <mxGraphModel dx="530" dy="570" grid="1" gridSize="10" guides="1" tooltips="1" connect="1" arrows="1" fold="1" page="1" pageScale="1" pageWidth="850" pageHeight="1100" math="0" shadow="0">
      <root>
        <mxCell id="0" />
        <mxCell id="1" parent="0" />
        <mxCell id="OYDC8TCWMCwBuUC2oJgs-2" value="Permissions Boundary" style="ellipse;whiteSpace=wrap;html=1;aspect=fixed;fillColor=#dae8fc;strokeColor=#6c8ebf;opacity=40;" vertex="1" parent="1">
          <mxGeometry x="520" y="310" width="230" height="230" as="geometry" />
        </mxCell>
        <mxCell id="OYDC8TCWMCwBuUC2oJgs-4" value="Organizations SCP" style="ellipse;whiteSpace=wrap;html=1;aspect=fixed;fillColor=#d5e8d4;strokeColor=#82b366;opacity=40;" vertex="1" parent="1">
          <mxGeometry x="330" y="310" width="230" height="230" as="geometry" />
        </mxCell>
        <mxCell id="OYDC8TCWMCwBuUC2oJgs-5" value="Identity-based Policy" style="ellipse;whiteSpace=wrap;html=1;aspect=fixed;fillColor=#fff2cc;strokeColor=#d6b656;opacity=40;" vertex="1" parent="1">
          <mxGeometry x="425" y="435" width="230" height="230" as="geometry" />
        </mxCell>
        <mxCell id="OYDC8TCWMCwBuUC2oJgs-6" value="" style="verticalLabelPosition=bottom;verticalAlign=top;html=1;shape=mxgraph.basic.tick;fillColor=#00CC00;strokeColor=#82b366;" vertex="1" parent="1">
          <mxGeometry x="585.5" y="330" width="25.5" height="30" as="geometry" />
        </mxCell>
        <mxCell id="OYDC8TCWMCwBuUC2oJgs-7" value="" style="verticalLabelPosition=bottom;verticalAlign=top;html=1;shape=mxgraph.basic.tick;fillColor=#00CC00;strokeColor=#82b366;" vertex="1" parent="1">
          <mxGeometry x="527.25" y="390" width="25.5" height="30" as="geometry" />
        </mxCell>
        <mxCell id="OYDC8TCWMCwBuUC2oJgs-14" style="edgeStyle=orthogonalEdgeStyle;rounded=0;orthogonalLoop=1;jettySize=auto;html=1;" edge="1" parent="1" source="OYDC8TCWMCwBuUC2oJgs-13">
          <mxGeometry relative="1" as="geometry">
            <mxPoint x="721" y="589" as="sourcePoint" />
            <mxPoint x="543.75" y="459" as="targetPoint" />
            <Array as="points">
              <mxPoint x="721" y="459" />
            </Array>
          </mxGeometry>
        </mxCell>
        <mxCell id="OYDC8TCWMCwBuUC2oJgs-8" value="" style="verticalLabelPosition=bottom;verticalAlign=top;html=1;shape=mxgraph.basic.tick;fillColor=#00CC00;strokeColor=#82b366;" vertex="1" parent="1">
          <mxGeometry x="527.25" y="440" width="25.5" height="30" as="geometry" />
        </mxCell>
        <mxCell id="OYDC8TCWMCwBuUC2oJgs-9" value="" style="verticalLabelPosition=bottom;verticalAlign=top;html=1;shape=mxgraph.basic.tick;fillColor=#00CC00;strokeColor=#82b366;" vertex="1" parent="1">
          <mxGeometry x="460" y="330" width="25.5" height="30" as="geometry" />
        </mxCell>
        <mxCell id="OYDC8TCWMCwBuUC2oJgs-10" value="" style="verticalLabelPosition=bottom;verticalAlign=top;html=1;shape=mxgraph.basic.tick;fillColor=#00CC00;strokeColor=#82b366;" vertex="1" parent="1">
          <mxGeometry x="527.25" y="510" width="25.5" height="30" as="geometry" />
        </mxCell>
        <mxCell id="OYDC8TCWMCwBuUC2oJgs-11" value="" style="verticalLabelPosition=bottom;verticalAlign=top;html=1;shape=mxgraph.basic.tick;fillColor=#00CC00;strokeColor=#82b366;" vertex="1" parent="1">
          <mxGeometry x="460" y="480" width="25.5" height="30" as="geometry" />
        </mxCell>
        <mxCell id="OYDC8TCWMCwBuUC2oJgs-12" value="" style="verticalLabelPosition=bottom;verticalAlign=top;html=1;shape=mxgraph.basic.tick;fillColor=#00CC00;strokeColor=#82b366;" vertex="1" parent="1">
          <mxGeometry x="585.5" y="480" width="25.5" height="30" as="geometry" />
        </mxCell>
        <mxCell id="OYDC8TCWMCwBuUC2oJgs-13" value="Effective Permissions" style="text;html=1;align=center;verticalAlign=middle;resizable=0;points=[];autosize=1;strokeColor=none;fillColor=none;fontStyle=1" vertex="1" parent="1">
          <mxGeometry x="650" y="600" width="140" height="30" as="geometry" />
        </mxCell>
      </root>
    </mxGraphModel>
  </diagram>
</mxfile>
